<svg width="26" height="26" viewBox="0 0 26 26" fill="none" xmlns="http://www.w3.org/2000/svg">
<path d="M16.8472 14.0801L14.6697 16.265C13.7866 17.1511 12.2329 17.1702 11.3308 16.265L9.15316 14.0801L1.33203 21.9266C1.62316 22.0612 1.94415 22.1416 2.2854 22.1416H23.7151C24.0563 22.1416 24.3772 22.0613 24.6682 21.9266L16.8472 14.0801Z" fill="#BB9B75"/>
<path d="M23.715 3.85938H2.2853C1.94405 3.85938 1.62306 3.93971 1.33203 4.07433L9.68946 12.4595C9.69002 12.46 9.69068 12.4601 9.69123 12.4607C9.69179 12.4613 9.69189 12.462 9.69189 12.462L12.4094 15.1885C12.698 15.4771 13.3024 15.4771 13.591 15.1885L16.3079 12.4625C16.3079 12.4625 16.3086 12.4613 16.3091 12.4607C16.3091 12.4607 16.3104 12.46 16.3109 12.4595L24.6681 4.07428C24.3771 3.93961 24.0562 3.85938 23.715 3.85938Z" fill="#BB9B75"/>
<path d="M0.243039 5.14062C0.0924219 5.44521 0 5.78331 0 6.14548V19.8564C0 20.2186 0.0923203 20.5567 0.242988 20.8613L8.07767 13.0012L0.243039 5.14062Z" fill="#BB9B75"/>
<path d="M25.7565 5.13867L17.9219 12.9994L25.7565 20.8595C25.9071 20.5549 25.9995 20.2168 25.9995 19.8546V6.14363C25.9995 5.78136 25.9071 5.44326 25.7565 5.13867Z" fill="#BB9B75"/>
</svg>
