<svg width="50" height="50" viewBox="0 0 50 50" fill="none" xmlns="http://www.w3.org/2000/svg">
<rect x="0.5" y="0.5" width="49" height="49" fill="white" stroke="#DFDFDF"/>
<g clip-path="url(#clip0_906_2406)">
<path d="M21.2019 29.4459L20.7719 35.4952C21.3872 35.4952 21.6537 35.2309 21.9733 34.9135L24.8582 32.1564L30.836 36.5341C31.9324 37.1451 32.7048 36.8234 33.0005 35.5255L36.9244 17.1392L36.9254 17.1381C37.2732 15.5175 36.3394 14.8837 35.2712 15.2813L12.207 24.1115C10.6329 24.7225 10.6568 25.6 11.9394 25.9976L17.836 27.8317L31.5326 19.2615C32.1772 18.8346 32.7633 19.0708 32.2812 19.4976L21.2019 29.4459Z" fill="#039BE5"/>
</g>
<defs>
<clipPath id="clip0_906_2406">
<rect width="26" height="26" fill="white" transform="translate(11 13)"/>
</clipPath>
</defs>
</svg>
